# xmcd
#
# Track frame offsets:
#	150
#	17655
#	30215
#	47665
#	59255
#	76735
#	96832
#	115172
#	133385
#	148612
#	163325
#	175870
#	195207
#
# Disc length: 2750 seconds
#
# Revision: 1
# Processed by: cddbd v1.4PL0 Copyright (c) Steve Scherf et al.
# Submitted via: audiograbber 1.81.03
#
DISCID=a30abc0d
DTITLE=Various Artist - Walmart.com Country Holiday Sampler Volume 2
DYEAR=1900
DGENRE=
TTITLE0=Anthony Smith - If That Ain't Country
TTITLE1=Emerson Drive - Fall Into Me
TTITLE2=Kevin Denney - That's Just Jessie
TTITLE3=Patsy Cline - Walin' After Midnight
TTITLE4=Steve Azar - The Underdog
TTITLE5=Tift Merritt - Bramble Rose
TTITLE6=Joe Nichols - That Would Be Her
TTITLE7=Rebecca Lynn Howard - Dancin' In God's Country
TTITLE8=Darryl Worley - Family Tree
TTITLE9=Jeannie Kendall - I Wonder Where You Are Tonight
TTITLE10=Hank Williams - I'm So Lonesome
TTITLE11=Gary Allan - The One
TTITLE12=Lee Ann Womack - Silent Night
EXTD=Universal music group promo CD.
EXTT0=
EXTT1=
EXTT2=
EXTT3=
EXTT4=
EXTT5=
EXTT6=
EXTT7=
EXTT8=
EXTT9=
EXTT10=
EXTT11=
EXTT12=
PLAYORDER=
